<?xml version="1.0" encoding="utf-8"?>
<!-- Generator: Adobe Illustrator 25.0.1, SVG Export Plug-In . SVG Version: 6.00 Build 0)  -->
<svg version="1.1" id="Layer_1" xmlns="http://www.w3.org/2000/svg" xmlns:xlink="http://www.w3.org/1999/xlink" x="0px" y="0px"
	 viewBox="0 0 26.9 17.4" style="enable-background:new 0 0 26.9 17.4;" xml:space="preserve">
<style type="text/css">
	.st0{fill:#E6E6E6;}
</style>
<g>
	<path class="st0" d="M15.5,8.8c0.2-0.1,0.2-0.1,0.3-0.2c1.7-0.8,3.3-1.5,5-2.3c1.5-0.7,3.1-1.4,4.6-2.1c0.2-0.1,0.3-0.3,0.2-0.5
		C25.6,3.3,25.3,3,24.9,3c-0.5-0.1-1-0.2-1.4-0.1c-0.8,0.2-1.7,0.4-2.5,0.8c-2.7,1.2-5.4,2.4-8.1,3.6c-0.2,0.1-0.4,0.1-0.6,0
		c-0.8-0.4-1.6-0.8-2.4-1.1c-0.9-0.4-1.4-1-1.6-2C8.1,3.4,7.8,2.6,7.2,2c-1-1.1-2.4-1.5-3.8-1C2,1.5,1.1,2.7,1.1,4.2
		c0,2.1,1.6,3.7,3.7,3.5c0.7,0,1.3-0.1,2-0.2c0.2,0,0.4,0,0.6,0.1c0.7,0.3,1.4,0.6,2,1c0.1,0,0.1,0.1,0.3,0.2
		C8.9,9.1,8.2,9.5,7.4,9.8C7.1,10,6.9,10,6.5,10C5.7,9.9,4.9,9.8,4.1,9.8c-1.2,0-2.1,0.6-2.6,1.7c-0.9,1.7-0.4,3.8,1.2,4.7
		c1.7,1,3.7,0.6,4.8-1.1c0.4-0.6,0.6-1.2,0.8-1.9c0.2-0.9,0.7-1.5,1.5-1.9c0.9-0.4,1.7-0.8,2.6-1.2 M12.4,10.2c0.1,0,0.3,0,0.4,0
		c2.4,1.1,4.8,2.2,7.2,3.2c1,0.4,2,0.8,3.1,1.1c0.6,0.2,1.3,0.2,2,0c0.3-0.1,0.6-0.3,0.7-0.7c0.1-0.3,0.1-0.4-0.3-0.6
		c-3.2-1.5-6.4-3-9.6-4.5c-0.1,0-0.2-0.1-0.3-0.1 M4.5,6.2c-1.1,0-2-0.9-2-2c0-1.1,0.9-2,2-2c1.1,0,2,0.9,2,2
		C6.5,5.4,5.6,6.2,4.5,6.2z M4.5,15.2c-1.1,0-2-0.9-2-2c0-1.1,0.9-2,2-2c1.1,0,2,0.9,2,2C6.4,14.3,5.6,15.2,4.5,15.2z M12.5,9.6
		c-0.5,0-0.8-0.4-0.8-0.8c0-0.5,0.4-0.8,0.8-0.8c0.4,0,0.8,0.4,0.8,0.8C13.3,9.2,12.9,9.6,12.5,9.6z"/>
</g>
</svg>
